<?xml version="1.0" encoding="UTF-8" standalone="no"?>
<!-- Created with Inkscape (http://www.inkscape.org/) -->

<svg
   width="18.192801mm"
   height="15.941586mm"
   viewBox="0 0 18.192801 15.941586"
   version="1.1"
   id="svg1"
   xml:space="preserve"
   xmlns="http://www.w3.org/2000/svg"
   xmlns:svg="http://www.w3.org/2000/svg"><defs
     id="defs1" /><g
     id="layer1"
     transform="translate(-124.26785,-152.14149)"><path
       d="m 124.26787,152.14162 v 1.1777 1.17771 h 1.11983 1.11931 v 1.11983 1.11931 h 1.11983 1.11931 v 1.11569 1.1157 l 1.14773,0.032 1.14722,0.032 0.032,1.08727 0.032,1.08779 -1.15136,0.032 -1.15186,0.032 -0.0315,1.14721 -0.032,1.14774 h -1.1157 -1.11569 v 1.11931 1.11983 h -1.11931 -1.11983 v 1.11931 1.11983 h 2.29546 2.29495 v -1.11983 -1.11931 h 1.11932 1.11982 v -1.11983 -1.11931 h 2.23914 2.23914 v 1.11931 1.11983 h 1.17513 1.17563 v 1.11724 1.11725 l 2.21124,0.03 c 1.21612,0.0168 2.23139,0.0186 2.25619,0.004 0.0248,-0.0145 0.0498,-0.5307 0.0558,-1.14721 l 0.0109,-1.12087 -1.14722,-5.1e-4 h -1.14774 v -1.11983 -1.11931 h -1.11569 -1.11569 l -0.032,-1.14774 -0.0315,-1.14721 -1.08417,-0.032 -1.08365,-0.032 -0.0357,-1.06919 c -0.0195,-0.58819 -0.0147,-1.09029 0.0109,-1.11569 0.0257,-0.0254 0.54225,-0.0465 1.14774,-0.0465 h 1.1007 v -1.11931 -1.11983 h 1.11983 1.11931 v -1.11569 -1.11518 l 1.14774,-0.032 1.14722,-0.032 v -1.11931 -1.11983 l -2.26292,-0.03 -2.26342,-0.0305 -0.0315,1.1498 -0.032,1.1498 -1.14773,0.032 -1.14722,0.032 v 1.11518 1.11569 h -2.23914 -2.23914 v -1.11931 -1.11983 h -1.11569 -1.11569 l -0.032,-1.14722 -0.032,-1.14773 -2.26705,-0.03 z"
       id="path4" /></g></svg>
