<?xml version="1.0" encoding="UTF-8" standalone="no"?>
<!-- Created with Inkscape (http://www.inkscape.org/) -->

<svg
   width="28.615885mm"
   height="31.41468mm"
   viewBox="0 0 28.615885 31.41468"
   version="1.1"
   id="svg1"
   xml:space="preserve"
   xmlns="http://www.w3.org/2000/svg"
   xmlns:svg="http://www.w3.org/2000/svg"><defs
     id="defs1" /><g
     id="layer1"
     transform="translate(-30.855013,-56.099004)"><path
       d="m 40.721882,66.525527 v 1.437122 3.153296 h 0.821139 7.948868 v 3.619934 h 2.35128 V 66.525527 H 41.599348 Z"
       style="fill:#1a1a1a;stroke:#1a1a1a"
       id="path7" /><path
       d="m 51.843169,77.087157 h -2.35128 v 0.802018 6.77323 h -7.948868 -7.948869 v -6.77323 -6.77323 h 4.88859 v -4.273124 -0.317294 h -7.12773 v 10.24382 10.244336 h 10.244336 10.243821 z"
       style="fill:#1a1a1a;stroke:#1a1a1a"
       id="path5" /><path
       d="m 51.843169,77.087157 v -0.31781 -2.033468 h -2.35128 v 2.351278 z"
       style="fill:#1a1a1a;stroke:#1a1a1a"
       id="path9" /><path
       d="m 38.482742,56.599002 v 9.926525 h 2.23914 v -5.336108 h 7.948869 7.948868 v 6.77323 6.77323 h -4.77645 v 2.033468 0.31781 h 7.12773 V 66.842821 56.599002 H 48.727078 Z"
       style="fill:#1a1a1a;stroke:#1a1a1a"
       id="path8" /><path
       d="m 38.482742,71.115945 h 2.23914 v -3.153296 -1.437122 h -2.23914 v 0.317294 z"
       style="fill:#1a1a1a;stroke:#1a1a1a"
       id="path6" /></g></svg>
